<svg width="91" height="127" viewBox="0 0 91 127" fill="none" xmlns="http://www.w3.org/2000/svg">
<path d="M12.8144 93.4489H11.8858V92.4609H12.8144V93.4489ZM12.8144 96.5158H11.5144L11.5557 96.9069C11.5557 97.545 11.3493 98.039 10.916 98.4095C10.5239 98.7388 10.008 98.8829 9.36835 98.8829C8.81121 98.8829 8.35724 98.7594 8.00644 98.4918C7.59374 98.2242 7.32549 97.8332 7.20168 97.298L7.13978 96.9687L7.11914 96.5776H8.25406C8.25406 96.8863 8.31597 97.1539 8.43978 97.3803C8.62549 97.7097 8.93501 97.8949 9.38898 97.8949C10.1318 97.8949 10.4826 97.5244 10.4826 96.804C10.4826 96.6805 10.4826 96.6187 10.462 96.5776C10.4207 96.3923 10.2969 96.2277 10.0906 96.0836C9.88422 95.9395 9.67787 95.8572 9.45089 95.8572H8.64613V94.7662H9.47152C9.9874 94.7662 10.2557 94.4986 10.2557 93.9841C10.2557 93.7782 10.1525 93.5724 9.94613 93.3871C9.82232 93.3254 9.71914 93.2842 9.61597 93.2431C9.51279 93.2019 9.40962 93.2019 9.26517 93.2019C8.93501 93.2019 8.66676 93.3048 8.52232 93.5106L8.41914 93.7371L8.37787 94.0458H7.22232L7.26359 93.8194L7.32549 93.5518L7.40803 93.3254L7.5112 93.1401C7.88263 92.5226 8.46041 92.2139 9.28581 92.2139C9.73978 92.2139 10.1525 92.3168 10.5652 92.5432C10.9779 92.7696 11.2461 93.099 11.3493 93.5724L11.3906 94.0252L11.3493 94.3957C11.2668 94.8074 11.0398 95.1161 10.6683 95.3426L10.8541 95.5072H12.7937V96.5158H12.8144ZM14.4445 93.4489H13.6604V98.9447H12.5255V93.4489H11.1636V92.4609H14.4445V93.4489ZM17.0445 93.4489H16.2604V98.9447H15.1255V93.4489H13.7636V92.4609H17.0239V93.4489H17.0445ZM20.9239 95.5072L20.9033 96.5982C20.8207 96.6805 20.635 96.8452 20.3255 97.051C20.0366 97.2157 19.7064 97.298 19.3969 97.298C18.943 97.298 18.5303 97.1745 18.1588 96.9275C17.7874 96.6805 17.5398 96.3306 17.416 95.8572C17.3953 95.7337 17.3747 95.6307 17.3541 95.5278C17.3334 95.4249 17.3334 95.3014 17.3334 95.1779V93.4489H16.735V92.4609H20.9239V93.4489H18.4684V95.075C18.4684 95.4866 18.5509 95.7748 18.716 96.0012C18.9017 96.2071 19.1287 96.31 19.3969 96.31C19.7684 96.31 20.0985 96.1659 20.408 95.8777L20.5318 95.7542L20.7588 95.4661L20.9239 95.5072ZM22.5334 93.4489H21.7493V98.9447H20.635V93.4489H19.2731V92.4609H22.5334V93.4489ZM27.0938 93.4489H22.2445V92.4609H27.0938V93.4489ZM27.0938 95.3014H25.1953C24.2874 95.3014 23.8334 95.5896 23.8334 96.1659L23.8747 96.4747C23.8953 96.557 23.9572 96.6805 24.0811 96.8246L24.535 97.3392L25.4223 98.2037L24.6176 98.9858L23.7096 98.1007C23.0493 97.4627 22.7191 96.8246 22.7191 96.1453C22.7191 94.8691 23.4826 94.2311 25.0096 94.2311H27.0938V95.3014ZM29.4668 93.4489H25.6906V92.4609H29.4668V93.4489ZM29.4668 97.9361L29.0953 98.1625C28.8477 98.2654 28.5795 98.3272 28.3112 98.3272C27.7747 98.3272 27.2795 98.1213 26.8049 97.7097C26.5779 97.4627 26.3922 97.1539 26.2477 96.7628L26.1858 96.4747V96.2482C26.1858 95.8983 26.2271 95.6101 26.3096 95.3631C26.3922 95.1161 26.5366 94.8897 26.7223 94.6839C27.0938 94.2722 27.589 94.087 28.2493 94.087C28.6414 94.087 29.0334 94.2311 29.4668 94.4986V96.0424H29.3017C29.3017 95.7954 29.2192 95.569 29.0334 95.3837C28.8684 95.1779 28.6207 95.075 28.3112 95.075C28.043 95.075 27.7953 95.1779 27.5684 95.4043C27.3826 95.6307 27.2795 95.9189 27.2795 96.2894C27.2795 96.6187 27.3826 96.8863 27.5684 97.1127C27.7541 97.3186 28.0223 97.4421 28.3525 97.4421C28.5795 97.4421 28.8065 97.3597 29.0334 97.1951C29.2192 97.0304 29.3017 96.804 29.3017 96.557H29.4668V97.9361ZM31.1588 93.4489H30.3747V98.9447H29.2398V93.4489H27.8779V92.4609H31.1588V93.4489ZM33.5525 93.4489H29.7763V92.4609H33.5525V93.4489ZM33.016 96.1659C33.016 96.8246 32.789 97.3597 32.3144 97.7714C32.1287 97.9361 31.8604 98.0802 31.5303 98.2037C31.489 98.2243 31.4065 98.2448 31.3239 98.286L31.0557 98.3272V97.3803L31.3445 97.2774C31.5096 97.2157 31.6334 97.1333 31.7366 97.0098C31.8811 96.8246 31.9636 96.5364 31.9636 96.1865C31.9636 95.8777 31.8811 95.6101 31.6953 95.3631C31.5303 95.1161 31.2826 95.0132 30.9525 95.0132C30.7461 95.0132 30.5191 95.1161 30.2715 95.322C29.9826 95.569 29.8382 95.8366 29.8382 96.1247V96.3512H29.6731V94.8897C29.7144 94.8074 29.7557 94.7456 29.7763 94.7045C29.962 94.4163 30.1271 94.2516 30.2922 94.1693C30.3747 94.1281 30.4572 94.087 30.5604 94.0664C30.6636 94.0458 30.7461 94.0252 30.8493 94.0252C31.4477 94.0252 31.943 94.2105 32.335 94.581C32.6033 94.828 32.8096 95.1573 32.9334 95.569L32.9747 95.7954L33.016 96.1659ZM36.3795 93.4489H35.5953V98.9447H34.4604V93.4489H33.0985V92.4609H36.3588V93.4489H36.3795ZM41.8065 93.4489H36.008V92.4609H41.8065V93.4489ZM41.8065 95.7337L41.5176 95.2808C41.3731 95.0544 41.1461 94.9515 40.8573 94.9515C40.4446 94.9515 40.2176 95.2396 40.2176 95.816V96.3717H39.0826V95.816C39.0826 95.6102 39.0414 95.4455 38.9588 95.3014C38.8763 95.1573 38.7112 95.0544 38.443 95.0132C37.9271 95.0132 37.6588 95.5278 37.6588 96.5364C37.6588 96.7422 37.6795 96.9275 37.7207 97.0716C37.762 97.2157 37.8033 97.3597 37.8858 97.5038C38.0303 97.7508 38.2779 97.8743 38.6287 97.8743H39.2271V98.9447H38.4636C37.9477 98.9447 37.4938 98.7183 37.1017 98.2654C36.916 98.039 36.7715 97.7302 36.6477 97.3597L36.5652 96.9687V96.4952C36.5652 96.1659 36.6065 95.8572 36.6684 95.5896C36.7303 95.322 36.8334 95.075 36.9985 94.8074C37.3287 94.2516 37.8239 93.9841 38.4223 93.9841C38.8969 93.9841 39.289 94.1899 39.5985 94.581C39.8668 94.2105 40.2588 94.0252 40.7334 94.0252C41.0017 94.0252 41.2699 94.1281 41.5176 94.334L41.7652 94.6427L41.8065 95.7337ZM43.4366 93.4489H42.6525V98.9447H41.5176V93.4489H40.1557V92.4609H43.416V93.4489H43.4366ZM42.7144 92.6667L41.7652 92.6461L39.0826 90.0526L40.0731 89.2293L42.7144 92.6667ZM52.0207 93.4489H50.308V94.0458C50.308 94.3957 50.2668 94.7251 50.2049 94.9926C50.1017 95.322 49.8954 95.5896 49.5446 95.7954L49.3588 95.8777L49.0906 95.9807L51.4636 98.2448L50.6588 99.0682L46.7588 94.9515L47.5017 94.1693L48.1207 94.8074L48.3065 94.9721L48.5953 95.0338C48.843 95.0338 49.0287 94.8897 49.1525 94.581V94.0458V93.4489H46.408V92.4609H52.0207V93.4489ZM54.4144 93.4489H53.6509V98.9447H52.516V93.4489H51.1541V92.4609H54.4144V93.4489ZM58.2938 92.6873L56.7874 91.5758C56.6017 91.4523 56.416 91.3288 56.2096 91.2053C56.0033 91.0818 55.735 90.9377 55.4255 90.773C55.2398 90.6907 55.0747 90.6495 54.9096 90.6084C54.7446 90.5672 54.6001 90.5466 54.4763 90.5466C54.2493 90.5466 53.9811 90.629 53.6922 90.7936C53.4652 90.9583 53.3414 91.1847 53.3414 91.4729L53.3827 91.761C53.4033 91.864 53.4446 91.9875 53.5065 92.1315C53.5477 92.2962 53.6715 92.4815 53.8366 92.6667H52.5985L52.4334 92.3785L52.3096 92.0698C52.2271 91.8434 52.2065 91.617 52.2065 91.3494C52.2065 90.7936 52.4334 90.3408 52.8668 89.9703C53.3001 89.5998 53.816 89.4351 54.4144 89.4351C54.8684 89.4351 55.3636 89.5586 55.9001 89.8056C56.2922 89.9703 56.6636 90.1967 57.035 90.4643L58.2938 91.37V92.6873ZM60.7287 93.4489H59.2017V92.4609H60.7287V93.4489ZM60.7287 95.3631L60.2954 95.5072L60.1096 95.5896L59.9446 95.6925L59.4493 95.7954L59.016 95.8366C58.6033 95.8366 58.2112 95.7748 57.8398 95.6719L57.5303 95.569L57.1382 95.3837L57.035 95.4249L56.9319 95.4661C56.6842 95.6101 56.5192 95.7748 56.416 95.9395L56.2922 96.4747C56.2922 96.7217 56.3747 96.9275 56.5398 97.1333C56.7049 97.3186 56.8906 97.4215 57.1176 97.4215H57.2827L57.6541 97.3803L57.5715 97.1333L57.5303 96.8863C57.5303 96.3512 57.7985 96.0836 58.335 96.0836C58.562 96.0836 58.7477 96.1659 58.9128 96.31C59.0779 96.4541 59.1604 96.6599 59.1604 96.9275L59.0779 97.2774L58.8922 97.5862L59.7176 98.5742L58.8922 99.1711L58.17 98.1625C58.1081 98.2037 58.0049 98.2448 57.8192 98.286L57.3033 98.3889H57.0763C56.6223 98.3889 56.2096 98.286 55.8795 98.0596C55.5493 97.8332 55.3223 97.4832 55.1985 97.0304C55.1573 96.8452 55.1366 96.6393 55.1366 96.4129C55.1366 96.1247 55.1985 95.8366 55.3636 95.569C55.508 95.3014 55.7557 95.075 56.0858 94.8486C55.7144 94.581 55.5081 94.2516 55.5081 93.8606C55.5081 93.4077 55.6525 93.0578 55.9414 92.7696C56.2303 92.4815 56.6223 92.3374 57.0763 92.3374C57.9223 92.3374 58.4382 92.6873 58.6652 93.4077L58.7065 93.6341V93.8606C58.7065 94.0664 58.6652 94.2516 58.5827 94.3957C58.5207 94.581 58.4176 94.7045 58.2731 94.7868L58.6239 94.828L58.9954 94.8691L59.5112 94.828C59.6557 94.8074 59.8414 94.7251 60.0477 94.6221C60.2541 94.5192 60.4811 94.334 60.7081 94.0664V95.3631H60.7287ZM57.7366 93.9223V93.7371C57.6747 93.4695 57.4684 93.3254 57.1382 93.3254C56.9938 93.3254 56.8493 93.3666 56.7461 93.4489C56.6636 93.5106 56.6223 93.6547 56.6017 93.8811C56.6017 94.0458 56.6636 94.1693 56.808 94.2722L57.1382 94.4369C57.5096 94.3751 57.6954 94.2105 57.7366 93.9223ZM62.1938 93.4489H61.4096V98.9447H60.2747V93.4489H58.9128V92.4609H62.1731V93.4489H62.1938ZM66.1763 93.4489H64.0509L66.135 95.2191V96.5776C65.6811 97.0716 65.1858 97.3186 64.6287 97.3186C63.5144 97.3186 62.8128 96.8246 62.5652 95.8366L62.5033 95.4866V95.0544V93.4489H61.8223V92.4609H66.1763V93.4489ZM65.5985 95.8572L63.6176 94.1693V95.3837C63.6176 95.6719 63.7001 95.9189 63.8652 96.1042C64.0509 96.2688 64.2985 96.3512 64.6081 96.3512C65.0001 96.3306 65.3303 96.1659 65.5985 95.8572ZM70.4477 95.0132L70.4271 96.3306C70.2414 96.7422 69.9112 97.1127 69.4573 97.4009C69.0033 97.6891 68.5287 97.8332 68.0541 97.8332C67.4557 97.8332 66.9398 97.6685 66.5065 97.3186C66.0731 96.9892 65.7842 96.4952 65.6192 95.8572C65.5366 95.5072 65.4954 95.1573 65.4954 94.7662L65.97 94.8074C66.1557 94.8074 66.2795 94.7868 66.3827 94.7662C66.4858 94.7456 66.589 94.6839 66.6922 94.581C66.7954 94.4781 66.8779 94.3751 66.9192 94.2516C66.9604 94.1281 67.0017 93.9841 67.0017 93.8194V93.4077H64.8144V92.4197H70.4271V93.4077H68.0335V93.7988C68.0335 94.4369 67.889 94.9103 67.5795 95.2397C67.3938 95.4249 67.0842 95.5896 66.6303 95.6925C66.6715 96.0012 66.8573 96.2482 67.1668 96.4747C67.435 96.6393 67.7239 96.7217 68.0541 96.7217C69.1271 96.7217 69.87 96.1453 70.2827 94.9721H70.4477V95.0132ZM72.0573 93.4489H71.2731V98.9447H70.1589V93.4489H68.7969V92.4609H72.0573V93.4489ZM74.6573 93.4489H73.8731V98.9447H72.7382V93.4489H71.3969V92.4609H74.6573V93.4489ZM77.2366 93.4489H76.4525V98.9447H75.3176V93.4489H73.9557V92.4609H77.216V93.4489H77.2366ZM81.116 92.6873L79.6096 91.5758C79.4239 91.4523 79.2382 91.3288 79.0319 91.2053C78.8255 91.0818 78.5573 90.9377 78.2477 90.773C78.062 90.6907 77.8969 90.6495 77.7319 90.6084C77.5668 90.5672 77.4223 90.5466 77.2985 90.5466C77.0716 90.5466 76.8033 90.629 76.5144 90.7936C76.2874 90.9583 76.1636 91.1847 76.1636 91.4729L76.2049 91.761C76.2255 91.864 76.2668 91.9875 76.3287 92.1315C76.37 92.2962 76.4938 92.4815 76.6589 92.6667H75.4208L75.2557 92.3785L75.1319 92.0698C75.0493 91.8434 75.0287 91.617 75.0287 91.3494C75.0287 90.7936 75.2557 90.3408 75.689 89.9703C76.1223 89.5998 76.6382 89.4351 77.2366 89.4351C77.6906 89.4351 78.1858 89.5586 78.7223 89.8056C79.1144 89.9703 79.4858 90.1967 79.8573 90.4643L81.116 91.37V92.6873ZM82.3954 96.4129H79.9811V96.8863C79.9811 97.298 79.8573 97.5244 79.589 97.5244C79.4652 97.5244 79.3414 97.4832 79.2382 97.4215L78.9287 97.1745L78.1858 96.4335C78.0001 96.2482 77.8969 96.0424 77.8969 95.8572C77.8969 95.569 78.062 95.4249 78.3922 95.4249H78.8668V93.4489H77.3811V92.4609H82.3954V93.4489H79.9811V95.4043H82.3954V96.4129ZM83.716 93.4489H82.9319V98.9447H81.797V93.4489H80.435V92.4609H83.6954V93.4489H83.716Z" fill="#164194"/>
<path fill-rule="evenodd" clip-rule="evenodd" d="M2.22857 66.6904L1.60952 65.1466L1.07302 63.5205L0.619048 61.8121L0.288889 60.0419L0.0825397 58.21L0 56.481L0.0206349 55.4724L0.0619048 54.6491L0.12381 53.8463L0.206349 53.0435L0.309524 52.2408L0.433334 51.4586L0.577778 50.6764L0.742858 49.8943L0.928572 49.1327L1.13492 48.3711L1.36191 47.6301L1.60952 46.8891L1.87778 46.1481L2.16667 45.4277L2.47619 44.7278L2.80635 44.028L3.15715 43.3282L3.52857 42.6489L3.9 41.9902L4.29207 41.3316L4.70476 40.6935L5.1381 40.076L5.57143 39.4585L6.0254 38.8615L6.5 38.2852L6.97461 37.7089L7.46985 37.1531L7.98572 36.618L8.50159 36.0828L9.0381 35.5682L9.07937 35.527L9.12064 35.4859L44.7159 0V22.4565L20.5111 46.5803L20.5318 46.6009C17.6841 49.0504 15.9095 52.4878 15.9095 56.2957C15.9095 63.7264 25.0095 69.7573 31.0143 69.7573L45.4175 69.8396L59.8207 69.7573C65.8254 69.7573 74.9254 63.7264 74.9254 56.2957C74.9254 52.4878 73.1508 49.0504 70.3032 46.6009L70.3239 46.5803L46.0984 22.4565V0L81.6524 35.4653L81.6937 35.5064L81.7556 35.5476L82.2921 36.0622L82.808 36.5974L83.3239 37.1325L83.8191 37.6883L84.2937 38.2646L84.7683 38.841L85.2223 39.4379L85.6556 40.0554L86.089 40.6729L86.5016 41.311L86.8937 41.9697L87.2651 42.6283L87.6366 43.3076L87.9874 43.9868L88.3175 44.6867L88.627 45.3865L88.9159 46.1069L89.1842 46.8273L89.4318 47.5683L89.6588 48.3299L89.8651 49.0915L90.0508 49.8531L90.2159 50.6353L90.3604 51.4175L90.4842 52.2202L90.5874 53.023L90.6699 53.8257L90.7318 54.6285L90.7731 55.4518L90.7937 56.4604L90.7318 58.1482L90.5255 59.9802L90.1953 61.7709L89.7413 63.4794L89.2048 65.1054L88.5651 66.6492L87.8635 68.1106L87.1001 69.4897L86.2747 70.8071L85.408 72.0421L84.5001 73.2153L83.5715 74.3062L82.6016 75.3354L81.6112 76.3028L80.6001 77.2291L79.5683 78.0936L78.5159 78.9169L77.4429 79.6785L76.3493 80.3989L75.235 81.0782L74.1001 81.7163L72.9445 82.3132L71.7683 82.869L70.5715 83.3835L69.354 83.8364L68.1159 84.248L66.8365 84.6186L65.5159 84.9479L64.154 85.2155L62.7508 85.4213L61.2858 85.5448L60.0683 85.586L45.3762 85.6683L30.6841 85.586L29.4667 85.5448L28.0016 85.4213L26.5984 85.2155L25.2365 84.9479L23.9159 84.6186L22.6365 84.248L21.3984 83.8364L20.181 83.3835L18.9841 82.869L17.8079 82.3132L16.6524 81.7163L15.5175 81.0782L14.4032 80.3989L13.3095 79.6785L12.2365 78.9169L11.1841 78.0936L10.1524 77.2291L9.14128 76.3028L8.1508 75.3354L7.18096 74.3062L6.25239 73.2153L5.34445 72.0421L4.47778 70.8071L3.65238 69.4897L2.88889 68.09L2.22857 66.6904ZM22.2445 46.5803L45.4175 23.4651L68.5699 46.5598L45.4175 69.675L22.2445 46.5803ZM34.1921 35.5476H56.5604V57.8601H34.1921V35.5476Z" fill="#164194"/>
<path d="M17.4361 106.231L17.952 112.489H17.4361C16.9203 110.924 16.2393 109.751 15.4139 108.969C14.2377 107.837 12.7107 107.26 10.8536 107.26C8.3155 107.26 6.39645 108.269 5.07581 110.266C3.96153 111.953 3.42502 113.971 3.42502 116.297C3.42502 118.19 3.79645 119.919 4.51867 121.484C5.26153 123.048 6.21073 124.201 7.40756 124.921C8.60439 125.641 9.82185 126.012 11.0599 126.012C11.8028 126.012 12.5044 125.909 13.1853 125.724C13.8663 125.539 14.5266 125.271 15.1663 124.9V119.158C15.1663 118.17 15.0838 117.511 14.9393 117.202C14.7949 116.893 14.5472 116.667 14.2377 116.502C13.9282 116.338 13.3711 116.255 12.5663 116.255V115.7H20.2631V116.255H19.8917C19.1282 116.255 18.6123 116.502 18.3234 117.017C18.1377 117.367 18.0345 118.087 18.0345 119.158V125.23C16.8996 125.827 15.806 126.28 14.7123 126.568C13.6187 126.856 12.4012 127 11.0599 127C7.22184 127 4.29168 125.765 2.31073 123.316C0.804381 121.463 0.0615234 119.343 0.0615234 116.935C0.0615234 115.185 0.474222 113.518 1.32025 111.912C2.31073 110.019 3.69327 108.537 5.42661 107.528C6.89169 106.684 8.60439 106.252 10.5853 106.252C11.3076 106.252 11.9679 106.314 12.5663 106.416C13.1647 106.54 13.9901 106.787 15.0838 107.199C15.6203 107.404 15.9917 107.507 16.1774 107.507C16.3631 107.507 16.5282 107.425 16.652 107.26C16.7758 107.096 16.8584 106.746 16.8996 106.252H17.4361V106.231ZM29.9615 125.991V126.527H21.4393V125.991H22.1409C22.9663 125.991 23.5647 125.744 23.9361 125.271C24.1631 124.962 24.2869 124.201 24.2869 123.027V110.204C24.2869 109.195 24.225 108.537 24.1012 108.207C23.998 107.96 23.7917 107.754 23.5028 107.569C23.0695 107.343 22.6155 107.219 22.1409 107.219H21.4393V106.684H29.9615V107.219H29.2393C28.4346 107.219 27.8361 107.466 27.4647 107.94C27.2171 108.248 27.0933 109.01 27.0933 110.183V123.007C27.0933 124.015 27.1552 124.674 27.279 125.003C27.3822 125.25 27.5885 125.456 27.898 125.641C28.3107 125.868 28.7647 125.991 29.2393 125.991H29.9615ZM48.7806 106.231L49.2346 112.983H48.7806C48.1822 110.965 47.3155 109.504 46.1806 108.619C45.0457 107.734 43.7044 107.281 42.1362 107.281C40.8155 107.281 39.6187 107.61 38.5457 108.29C37.4727 108.969 36.6473 110.019 36.0282 111.48C35.4092 112.941 35.1203 114.773 35.1203 116.935C35.1203 118.725 35.4092 120.29 35.9869 121.607C36.5647 122.924 37.4314 123.933 38.5869 124.633C39.7425 125.333 41.0631 125.683 42.5488 125.683C43.8489 125.683 44.9838 125.415 45.9743 124.859C46.9647 124.304 48.0377 123.213 49.2346 121.587L49.6885 121.875C48.6981 123.645 47.5219 124.942 46.2012 125.765C44.86 126.588 43.2917 127 41.4552 127C38.1536 127 35.6155 125.786 33.7996 123.336C32.4584 121.525 31.7774 119.384 31.7774 116.935C31.7774 114.959 32.2314 113.127 33.1187 111.48C34.006 109.813 35.2441 108.537 36.7917 107.631C38.36 106.725 40.052 106.272 41.9092 106.272C43.3536 106.272 44.7774 106.622 46.16 107.322C46.5727 107.528 46.8615 107.651 47.0473 107.651C47.3155 107.651 47.5425 107.549 47.7282 107.363C47.9758 107.096 48.1615 106.725 48.2647 106.272H48.7806V106.231ZM78.5568 126.527H73.233L66.506 117.243C66.0108 117.264 65.5981 117.264 65.2885 117.264C65.1647 117.264 65.0203 117.264 64.8758 117.264C64.7314 117.264 64.587 117.264 64.4219 117.243V123.007C64.4219 124.262 64.5663 125.024 64.8346 125.333C65.206 125.765 65.7632 125.971 66.506 125.971H67.2901V126.506H58.7679V125.971H59.5108C60.3568 125.971 60.9552 125.703 61.306 125.147C61.5124 124.839 61.6155 124.118 61.6155 122.986V110.163C61.6155 108.907 61.4711 108.145 61.2028 107.837C60.8314 107.404 60.2536 107.199 59.4901 107.199H58.7473V106.663H65.9901C68.0949 106.663 69.6632 106.828 70.6536 107.137C71.6647 107.446 72.5108 108.001 73.2124 108.825C73.9139 109.648 74.2647 110.636 74.2647 111.768C74.2647 112.983 73.8727 114.053 73.0679 114.938C72.2632 115.823 71.0457 116.461 69.3743 116.832L73.4806 122.533C74.4092 123.851 75.2346 124.715 75.8949 125.147C76.5759 125.58 77.4425 125.847 78.5362 125.971V126.527H78.5568ZM64.4219 116.338C64.6076 116.338 64.7727 116.338 64.9171 116.338C65.0616 116.338 65.1647 116.338 65.2473 116.338C67.1457 116.338 68.5695 115.926 69.5393 115.103C70.5092 114.279 70.9838 113.23 70.9838 111.974C70.9838 110.739 70.5917 109.73 69.8076 108.948C69.0235 108.166 67.9917 107.775 66.7124 107.775C66.1552 107.775 65.3711 107.878 64.4012 108.063V116.338H64.4219ZM81.487 118.17C81.487 120.166 81.9616 121.731 82.9314 122.863C83.9013 123.995 85.0568 124.551 86.3774 124.551C87.2648 124.551 88.0282 124.304 88.6679 123.83C89.3282 123.357 89.8648 122.513 90.2981 121.36L90.7521 121.648C90.5457 122.986 89.9473 124.201 88.9568 125.292C87.9663 126.382 86.7282 126.938 85.2425 126.938C83.633 126.938 82.2505 126.321 81.0949 125.065C79.9394 123.81 79.3822 122.122 79.3822 120.002C79.3822 117.717 79.96 115.926 81.1568 114.65C82.333 113.374 83.8187 112.715 85.5933 112.715C87.0997 112.715 88.3378 113.209 89.3076 114.197C90.2775 115.185 90.7521 116.502 90.7521 118.17H81.487ZM81.487 117.326H87.6981C87.6568 116.461 87.5536 115.864 87.3886 115.514C87.1409 114.979 86.7902 114.547 86.2949 114.218C85.7997 113.909 85.3044 113.744 84.7679 113.744C83.9632 113.744 83.2203 114.053 82.5806 114.691C81.9616 115.329 81.5901 116.194 81.487 117.326Z" fill="#164194"/>
</svg>
